<svg height="231.48" viewBox="0 0 453.6 173.61" width="604.8" xmlns="http://www.w3.org/2000/svg"><defs><style>*{stroke-linecap:butt;stroke-linejoin:round}</style></defs><g id="figure_1"><path d="M0 173.61h453.6V0H0z" fill="#fff" id="patch_1"/><g id="axes_1"><path d="M7.2 166.41h439.2V7.2H7.2z" fill="#fff" id="patch_2"/><path clip-path="url(#pb130e97c47)" d="M15.65 163.35V10.26" fill="none" stroke="#000" stroke-dasharray="1.2,1.98" stroke-opacity=".5" stroke-width="1.2" id="line2d_1"/><path clip-path="url(#pb130e97c47)" d="M15.65 10.26h422.3" fill="none" stroke="#000" stroke-dasharray="1.2,1.98" stroke-opacity=".5" stroke-width="1.2" id="line2d_2"/><path clip-path="url(#pb130e97c47)" d="M437.95 10.26v153.09" fill="none" stroke="#000" stroke-dasharray="1.2,1.98" stroke-opacity=".5" stroke-width="1.2" id="line2d_3"/><path clip-path="url(#pb130e97c47)" d="M437.95 163.35H15.65" fill="none" stroke="#000" stroke-dasharray="1.2,1.98" stroke-opacity=".5" stroke-width="1.2" id="line2d_4"/><path clip-path="url(#pb130e97c47)" d="M385.17 163.35c0-15.4-5.57-30.18-15.47-41.06-9.9-10.89-23.33-17-37.32-17-14 0-27.43 6.11-37.33 17-9.9 10.88-15.46 25.66-15.46 41.06" fill="none" stroke="#000" id="patch_3"/><path clip-path="url(#pb130e97c47)" d="M174.01 163.35c0-15.4-5.56-30.18-15.46-41.06-9.9-10.89-23.33-17-37.33-17s-27.43 6.11-37.32 17c-9.9 10.88-15.47 25.66-15.47 41.06" fill="none" stroke="#000" id="patch_4"/><path clip-path="url(#pb130e97c47)" d="M68.43 10.26c0 15.4 5.57 30.18 15.47 41.06 9.9 10.89 23.33 17 37.32 17 14 0 27.43-6.11 37.33-17 9.9-10.88 15.46-25.66 15.46-41.06" fill="none" stroke="#000" id="patch_5"/><path clip-path="url(#pb130e97c47)" d="M279.59 10.26c0 15.4 5.56 30.18 15.46 41.06 9.9 10.89 23.33 17 37.33 17s27.43-6.11 37.32-17c9.9-10.88 15.47-25.66 15.47-41.06" fill="none" stroke="#000" id="patch_6"/></g></g><defs><clipPath id="pb130e97c47"><path d="M7.2 7.2h439.2v159.21H7.2z"/></clipPath></defs></svg>