<svg id="link" role="img" xmlns="http://www.w3.org/2000/svg" viewBox="2.5 2 17 18" shape-rendering="crispEdges">
<metadata>Made with Pixels to Svg https://codepen.io/shshaw/pen/XbxvNj</metadata>
<path stroke="#000000" d="M8 3h5M7 4h1M13 4h1M6 5h2M9 5h2M14 5h2M5 6h1M7 6h2M14 6h1M16 6h1M5 7h1M7 7h1M9 7h4M14 7h1M16 7h1M5 8h1M7 8h8M16 8h1M5 9h1M8 9h6M16 9h1M6 10h1M9 10h1M12 10h1M15 10h1M6 11h1M9 11h1M12 11h1M15 11h1M5 12h1M7 12h1M14 12h1M16 12h1M4 13h1M7 13h8M16 13h1M4 14h1M6 14h2M12 14h1M16 14h1M5 15h2M12 15h1M15 15h1M6 16h4M13 16h2M5 17h2M10 17h6M6 18h9" />
<path stroke="#38e080" d="M8 4h1M11 4h2M8 5h1M11 5h3M13 6h1M6 9h2M14 9h2M7 11h1M14 11h1M6 12h1M8 12h1M13 12h1M15 12h1M6 13h1M15 13h1M8 14h4M15 14h1M7 15h1M10 16h3M7 17h1" />
<path stroke="#f8f0c8" d="M9 4h2M6 6h1M9 6h4M15 6h1M6 7h1M8 7h1M13 7h1M15 7h1M6 8h1M15 8h1M7 10h2M10 10h2M13 10h2M8 11h1M10 11h2M13 11h1M9 12h4M5 13h1M5 14h1M13 14h2M8 15h4M13 15h2M8 17h2" />
</svg>