<svg height="217.56" viewBox="0 0 424.8 163.17" width="566.4" xmlns="http://www.w3.org/2000/svg"><defs><style>*{stroke-linecap:butt;stroke-linejoin:round}</style></defs><g id="figure_1"><path d="M0 163.17h424.8V0H0z" fill="#fff" id="patch_1"/><g id="axes_1"><path d="M7.2 155.97h410.4V7.2H7.2z" fill="#fff" id="patch_2"/><path clip-path="url(#pd17147d4f5)" d="M360.38 153.1V10.07" fill="none" stroke="#000" stroke-linecap="square" id="line2d_1"/><path clip-path="url(#pd17147d4f5)" d="M261.73 153.1V10.07" fill="none" stroke="#000" stroke-linecap="square" id="line2d_2"/><path clip-path="url(#pd17147d4f5)" d="M15.1 153.1V10.07" fill="none" stroke="#000" stroke-dasharray="1.2,1.98" stroke-opacity=".5" stroke-width="1.2" id="line2d_3"/><path clip-path="url(#pd17147d4f5)" d="M15.1 10.06h394.6" fill="none" stroke="#000" stroke-dasharray="1.2,1.98" stroke-opacity=".5" stroke-width="1.2" id="line2d_4"/><path clip-path="url(#pd17147d4f5)" d="M409.7 10.06v143.05" fill="none" stroke="#000" stroke-dasharray="1.2,1.98" stroke-opacity=".5" stroke-width="1.2" id="line2d_5"/><path clip-path="url(#pd17147d4f5)" d="M409.7 153.1H15.1" fill="none" stroke="#000" stroke-dasharray="1.2,1.98" stroke-opacity=".5" stroke-width="1.2" id="line2d_6"/><path clip-path="url(#pd17147d4f5)" d="M163.07 153.1c0-14.38-5.2-28.19-14.44-38.36-9.25-10.17-21.8-15.9-34.88-15.9-13.08 0-25.64 5.73-34.88 15.9-9.25 10.17-14.45 23.98-14.45 38.37" fill="none" stroke="#000" id="patch_3"/><path clip-path="url(#pd17147d4f5)" d="M113.75 103.78a4.93 4.93 0 100-9.86 4.93 4.93 0 000 9.86z" fill="orange" stroke="#000" id="patch_4"/><path clip-path="url(#pd17147d4f5)" d="M64.42 10.06c0 14.39 5.2 28.2 14.45 38.37 9.24 10.17 21.8 15.9 34.88 15.9 13.07 0 25.63-5.73 34.88-15.9 9.24-10.17 14.44-23.98 14.44-38.37" fill="none" stroke="#000" id="patch_5"/><path clip-path="url(#pd17147d4f5)" d="M113.75 69.25a4.93 4.93 0 100-9.86 4.93 4.93 0 000 9.86z" fill="orange" stroke="#000" id="patch_6"/></g></g><defs><clipPath id="pd17147d4f5"><path d="M7.2 7.2h410.4v148.77H7.2z"/></clipPath></defs></svg>