<svg height="177.89" viewBox="0 0 424.8 133.42" width="566.4" xmlns="http://www.w3.org/2000/svg"><defs><style>*{stroke-linecap:butt;stroke-linejoin:round}</style></defs><g id="figure_1"><path d="M0 133.42h424.8V0H0z" fill="#fff" id="patch_1"/><g id="axes_1"><path d="M7.2 126.22h410.4V7.2H7.2z" fill="#fff" id="patch_2"/><path clip-path="url(#p80d6ed5372)" d="M212.4 123.93V9.49" fill="none" stroke="#000" stroke-linecap="square" id="line2d_1"/><path clip-path="url(#p80d6ed5372)" d="M15.1 123.93V9.49" fill="none" stroke="#000" stroke-dasharray="1.2,1.98" stroke-opacity=".5" stroke-width="1.2" id="line2d_2"/><path clip-path="url(#p80d6ed5372)" d="M15.1 9.49h394.6" fill="none" stroke="#000" stroke-dasharray="1.2,1.98" stroke-opacity=".5" stroke-width="1.2" id="line2d_3"/><path clip-path="url(#p80d6ed5372)" d="M409.7 9.49v114.44" fill="none" stroke="#000" stroke-dasharray="1.2,1.98" stroke-opacity=".5" stroke-width="1.2" id="line2d_4"/><path clip-path="url(#p80d6ed5372)" d="M409.7 123.93H15.1" fill="none" stroke="#000" stroke-dasharray="1.2,1.98" stroke-opacity=".5" stroke-width="1.2" id="line2d_5"/><path clip-path="url(#p80d6ed5372)" d="M370.25 123.93c0-11.51-4.16-22.56-11.56-30.7-7.4-8.13-17.44-12.71-27.9-12.71-10.47 0-20.51 4.58-27.9 12.71-7.4 8.14-11.57 19.19-11.57 30.7" fill="none" stroke="#000" id="patch_3"/><path clip-path="url(#p80d6ed5372)" d="M212.4 70.65a3.95 3.95 0 100-7.89 3.95 3.95 0 000 7.9z" fill="orange" stroke="#000" id="patch_4"/><path clip-path="url(#p80d6ed5372)" d="M133.48 123.93c0-11.51-4.16-22.56-11.56-30.7-7.4-8.13-17.44-12.71-27.9-12.71-10.47 0-20.51 4.58-27.9 12.71-7.4 8.14-11.57 19.19-11.57 30.7" fill="none" stroke="#000" id="patch_5"/><path clip-path="url(#p80d6ed5372)" d="M94.02 84.47a3.95 3.95 0 100-7.9 3.95 3.95 0 000 7.9z" fill="orange" stroke="#000" id="patch_6"/><path clip-path="url(#p80d6ed5372)" d="M54.55 9.49c0 11.5 4.16 22.56 11.56 30.7 7.4 8.13 17.44 12.7 27.9 12.7 10.47 0 20.51-4.57 27.9-12.7 7.4-8.14 11.57-19.2 11.57-30.7" fill="none" stroke="#000" id="patch_7"/><path clip-path="url(#p80d6ed5372)" d="M94.02 56.84a3.95 3.95 0 100-7.89 3.95 3.95 0 000 7.9z" fill="orange" stroke="#000" id="patch_8"/><path clip-path="url(#p80d6ed5372)" d="M291.32 9.49c0 11.5 4.16 22.56 11.56 30.7 7.4 8.13 17.44 12.7 27.9 12.7 10.47 0 20.51-4.57 27.9-12.7 7.4-8.14 11.57-19.2 11.57-30.7" fill="none" stroke="#000" id="patch_9"/></g></g><defs><clipPath id="p80d6ed5372"><path d="M7.2 7.2h410.4v119.02H7.2z"/></clipPath></defs></svg>